<?xml version="1.0" encoding="UTF-8"?>
<svg version="1.1" xmlns="http://www.w3.org/2000/svg" width="555" height="449">
<path d="M0 0 C2.97050443 0.01071066 5.94040263 0.00005461 8.91088867 -0.01269531 C23.51999439 -0.02518882 37.35354775 0.97048528 51.47924805 5.01074219 C52.41381836 5.27314697 53.34838867 5.53555176 54.3112793 5.8059082 C67.7553976 9.66303495 80.1790906 14.73171372 92.54174805 21.26074219 C91.79716765 25.766605 90.34371361 28.60969615 87.54174805 32.26074219 C86.88174805 32.26074219 86.22174805 32.26074219 85.54174805 32.26074219 C85.28651367 32.98648438 85.0312793 33.71222656 84.76831055 34.45996094 C83.47373731 37.41604059 81.93719701 39.56638885 79.91674805 42.07324219 C79.28510742 42.8634375 78.6534668 43.65363281 78.00268555 44.46777344 C77.27952148 45.35529297 77.27952148 45.35529297 76.54174805 46.26074219 C71.62074566 45.85902771 68.81071073 44.86804914 64.515625 42.32128906 C61.06332929 40.46640068 57.38836236 39.3299444 53.66674805 38.13574219 C52.53946289 37.75869141 52.53946289 37.75869141 51.3894043 37.37402344 C42.53022458 34.47161636 33.89075232 32.8997918 24.60424805 32.13574219 C23.59571777 32.05227539 22.5871875 31.96880859 21.5480957 31.8828125 C0.32220019 30.23843482 -21.03746338 30.78168571 -41.45825195 37.26074219 C-42.89947545 37.68714164 -44.34089037 38.11289447 -45.7824707 38.53808594 C-69.64355001 45.80205814 -91.53879037 59.69786378 -108.95825195 77.44824219 C-109.83739258 78.32416016 -110.7165332 79.20007813 -111.62231445 80.10253906 C-116.29806532 84.72642275 -116.29806532 84.72642275 -120.10083008 90.04711914 C-120.5487793 90.77761475 -120.99672852 91.50811035 -121.45825195 92.26074219 C-122.11825195 92.26074219 -122.77825195 92.26074219 -123.45825195 92.26074219 C-123.6902832 92.92976563 -123.92231445 93.59878906 -124.16137695 94.28808594 C-125.81049336 98.0681389 -127.9730341 101.36735298 -130.20825195 104.82324219 C-152.12659006 139.55664293 -159.11842765 181.26947921 -150.8449707 221.51464844 C-143.17794644 254.81846373 -125.45908351 286.68198431 -98.45825195 308.26074219 C-97.79825195 308.59074219 -97.13825195 308.92074219 -96.45825195 309.26074219 C-96.45825195 309.92074219 -96.45825195 310.58074219 -96.45825195 311.26074219 C-95.46825195 311.57011719 -95.46825195 311.57011719 -94.45825195 311.88574219 C-91.91193498 313.05280413 -90.35070986 314.05256629 -88.20825195 315.76074219 C-65.1788754 333.48901697 -36.22035137 342.97585027 -7.33325195 343.94824219 C-6.24359131 343.9858667 -5.15393066 344.02349121 -4.03125 344.06225586 C9.35374007 344.45312317 22.0326428 343.70440419 35.22924805 341.38574219 C36.1505249 341.22436768 37.07180176 341.06299316 38.02099609 340.89672852 C43.25652177 339.90541768 47.70727457 338.48508223 52.54174805 336.26074219 C54.01263051 335.83515691 55.49168794 335.43626144 56.97924805 335.07324219 C70.46163114 331.13066652 84.7229074 323.02485296 95.83862305 314.49902344 C97.54174805 313.26074219 97.54174805 313.26074219 99.54174805 313.26074219 C99.54174805 312.60074219 99.54174805 311.94074219 99.54174805 311.26074219 C100.95206575 310.0364664 102.42323736 308.88202406 103.91674805 307.76074219 C133.66600573 284.47324146 153.55495081 247.14525374 158.2722168 209.86621094 C162.68186475 169.84151534 156.78630731 128.62556175 131.54174805 96.26074219 C131.54174805 95.60074219 131.54174805 94.94074219 131.54174805 94.26074219 C130.88174805 94.26074219 130.22174805 94.26074219 129.54174805 94.26074219 C130.41674805 89.51074219 130.41674805 89.51074219 131.54174805 87.26074219 C132.20174805 87.26074219 132.86174805 87.26074219 133.54174805 87.26074219 C133.81575439 86.67196289 134.08976074 86.08318359 134.37207031 85.4765625 C136.24854986 81.92178722 138.87756333 79.05480612 141.47924805 76.01074219 C142.01743164 75.36105469 142.55561523 74.71136719 143.11010742 74.04199219 C143.89417969 73.12160156 143.89417969 73.12160156 144.6940918 72.18261719 C145.16838623 71.62155273 145.64268066 71.06048828 146.13134766 70.48242188 C147.54174805 69.26074219 147.54174805 69.26074219 150.54174805 69.26074219 C151.99935829 71.23440078 153.26888157 73.17349333 154.54174805 75.26074219 C155.3130495 76.41324645 156.09055741 77.56161794 156.8737793 78.70605469 C159.4632641 82.53581556 162.00803395 86.3939268 164.54174805 90.26074219 C165.46020508 91.64712891 165.46020508 91.64712891 166.3972168 93.06152344 C175.18668839 107.15390663 180.99044501 123.3042386 185.54174805 139.19824219 C185.9594043 140.6323645 185.9594043 140.6323645 186.38549805 142.09545898 C190.25669954 156.36688523 190.89553565 170.88308398 190.85742188 185.58935547 C190.85425846 188.12738984 190.87785884 190.66425632 190.90307617 193.20214844 C190.96599073 209.09622745 188.8034523 224.40478959 184.41674805 239.69824219 C184.12034424 240.74318848 183.82394043 241.78813477 183.51855469 242.86474609 C180.48654796 253.12320444 176.33924452 262.7165164 171.54174805 272.26074219 C171.01709961 273.31261719 170.49245117 274.36449219 169.9519043 275.44824219 C164.68753695 285.48116389 158.34534611 297.02218948 150.54174805 305.26074219 C149.88174805 305.26074219 149.22174805 305.26074219 148.54174805 305.26074219 C148.29038086 306.00324219 148.03901367 306.74574219 147.7800293 307.51074219 C146.44883424 310.46708705 145.06810668 312.04262769 142.72924805 314.26074219 C142.06280273 314.90011719 141.39635742 315.53949219 140.7097168 316.19824219 C139.99428711 316.87886719 139.27885742 317.55949219 138.54174805 318.26074219 C135.92863302 320.86530365 133.32544227 323.47915093 130.72924805 326.10058594 C109.67956065 346.80228931 82.43706118 361.090094 54.29174805 369.44824219 C53.11539795 369.80547363 53.11539795 369.80547363 51.9152832 370.16992188 C36.03715581 374.6794239 20.09116148 375.78764083 3.66674805 375.63574219 C2.74498779 375.6304248 1.82322754 375.62510742 0.87353516 375.61962891 C-34.53752902 375.38034423 -66.02312514 366.4083451 -96.45825195 348.26074219 C-97.0413916 347.91414551 -97.62453125 347.56754883 -98.2253418 347.21044922 C-104.94740946 343.18111112 -104.94740946 343.18111112 -107.45825195 341.26074219 C-107.45825195 340.60074219 -107.45825195 339.94074219 -107.45825195 339.26074219 C-108.13758789 339.05191406 -108.81692383 338.84308594 -109.5168457 338.62792969 C-113.43872775 336.80500975 -116.30404525 334.24282994 -119.52075195 331.38574219 C-120.17470947 330.81146484 -120.82866699 330.2371875 -121.50244141 329.64550781 C-137.40263948 315.54289133 -137.40263948 315.54289133 -143.45825195 307.26074219 C-143.45825195 306.60074219 -143.45825195 305.94074219 -143.45825195 305.26074219 C-144.11825195 305.26074219 -144.77825195 305.26074219 -145.45825195 305.26074219 C-149.45825195 299.84897748 -149.45825195 299.84897748 -149.45825195 297.26074219 C-150.11825195 297.26074219 -150.77825195 297.26074219 -151.45825195 297.26074219 C-152.75170898 295.51098633 -152.75170898 295.51098633 -154.21606445 293.04589844 C-154.75545654 292.14057373 -155.29484863 291.23524902 -155.85058594 290.30249023 C-156.70825562 288.82776245 -156.70825562 288.82776245 -157.58325195 287.32324219 C-158.46122437 285.82047729 -158.46122437 285.82047729 -159.35693359 284.28735352 C-173.73980051 259.36591569 -184.59355986 231.45848651 -184.6262207 202.35058594 C-184.6295491 201.3060878 -184.6328775 200.26158966 -184.63630676 199.18544006 C-184.64135499 196.97918129 -184.64371574 194.77291493 -184.64355469 192.56665039 C-184.645729 189.23342891 -184.66387387 185.90054532 -184.68286133 182.56738281 C-184.72153905 168.40251199 -184.20390221 154.99814484 -180.14575195 141.32324219 C-179.92483887 140.56293701 -179.70392578 139.80263184 -179.47631836 139.01928711 C-179.02485759 137.48158924 -178.56796744 135.94547327 -178.10522461 134.41113281 C-177.52279502 132.47526874 -176.9636612 130.53243248 -176.4074707 128.58886719 C-171.37662581 112.12428389 -163.56114324 96.18814156 -153.45825195 82.26074219 C-151.85554592 79.78350836 -150.26599024 77.29863156 -148.68481445 74.80761719 C-148.28004883 74.29714844 -147.8752832 73.78667969 -147.45825195 73.26074219 C-146.79825195 73.26074219 -146.13825195 73.26074219 -145.45825195 73.26074219 C-145.23137695 72.74511719 -145.00450195 72.22949219 -144.77075195 71.69824219 C-142.97607577 68.36527214 -140.9586018 65.11370547 -138.45825195 62.26074219 C-137.79825195 62.26074219 -137.13825195 62.26074219 -136.45825195 62.26074219 C-136.45825195 61.60074219 -136.45825195 60.94074219 -136.45825195 60.26074219 C-135.79825195 60.26074219 -135.13825195 60.26074219 -134.45825195 60.26074219 C-134.45825195 59.60074219 -134.45825195 58.94074219 -134.45825195 58.26074219 C-133.79825195 58.26074219 -133.13825195 58.26074219 -132.45825195 58.26074219 C-131.79825195 56.94074219 -131.13825195 55.62074219 -130.45825195 54.26074219 C-129.79825195 54.26074219 -129.13825195 54.26074219 -128.45825195 54.26074219 C-128.45825195 53.60074219 -128.45825195 52.94074219 -128.45825195 52.26074219 C-127.79825195 52.26074219 -127.13825195 52.26074219 -126.45825195 52.26074219 C-126.45825195 51.60074219 -126.45825195 50.94074219 -126.45825195 50.26074219 C-125.79825195 50.26074219 -125.13825195 50.26074219 -124.45825195 50.26074219 C-124.45825195 49.60074219 -124.45825195 48.94074219 -124.45825195 48.26074219 C-122.39104771 46.46815924 -120.31856073 44.79198798 -118.14575195 43.13574219 C-117.17690063 42.39106689 -117.17690063 42.39106689 -116.18847656 41.63134766 C-114.87870518 40.62782186 -113.56662334 39.62730409 -112.25219727 38.62988281 C-110.78363649 37.50907595 -109.33308246 36.36471056 -107.88793945 35.21386719 C-88.90830757 20.55632969 -66.93952894 11.31376921 -44.02075195 4.88574219 C-43.16989014 4.64670166 -42.31902832 4.40766113 -41.44238281 4.16137695 C-27.63167705 0.50018073 -14.20050046 -0.06082086 0 0 Z " fill="#FDFDFD" transform="translate(270.458251953125,47.7392578125)"/>
<path d="M0 0 C2.60463312 0.02940157 5.20727781 0.02047755 7.81201172 0.00756836 C9.47478202 0.01379473 11.13754597 0.02217699 12.80029297 0.03295898 C13.96270004 0.02855553 13.96270004 0.02855553 15.14859009 0.02406311 C20.45447247 0.1177182 20.45447247 0.1177182 22.94018555 1.87207031 C24.67475869 4.61438384 24.11585911 6.86747499 23.66748047 9.97045898 C22.40877137 14.34173678 19.96526201 18.08195634 16.94873047 21.46655273 C16.28873047 21.46655273 15.62873047 21.46655273 14.94873047 21.46655273 C14.72830078 22.16135742 14.50787109 22.85616211 14.28076172 23.57202148 C12.62149815 27.17763528 10.25717898 29.8532747 7.63623047 32.77905273 C6.54986885 34.01973086 5.46529971 35.2619803 4.38232422 36.50561523 C3.53710205 37.4748291 3.53710205 37.4748291 2.67480469 38.46362305 C-0.21041492 41.81162045 -3.01230714 45.22573155 -5.80126953 48.65405273 C-6.34541504 49.32218994 -6.88956055 49.99032715 -7.45019531 50.67871094 C-11.36409579 55.52435073 -15.03578676 60.48683478 -18.56298828 65.62280273 C-19.05412109 66.23124023 -19.54525391 66.83967773 -20.05126953 67.46655273 C-20.71126953 67.46655273 -21.37126953 67.46655273 -22.05126953 67.46655273 C-22.39158203 68.23999023 -22.39158203 68.23999023 -22.73876953 69.02905273 C-24.53344571 72.36202278 -26.55091968 75.61358945 -29.05126953 78.46655273 C-29.71126953 78.46655273 -30.37126953 78.46655273 -31.05126953 78.46655273 C-31.28458984 79.17424805 -31.51791016 79.88194336 -31.75830078 80.61108398 C-33.29779147 84.01098639 -35.28740591 86.34230487 -37.73876953 89.15405273 C-41.74007091 93.79707226 -45.31584301 98.56335258 -48.67626953 103.70092773 C-49.13001953 104.28358398 -49.58376953 104.86624023 -50.05126953 105.46655273 C-50.71126953 105.46655273 -51.37126953 105.46655273 -52.05126953 105.46655273 C-52.34001953 106.22967773 -52.62876953 106.99280273 -52.92626953 107.77905273 C-54.05126953 110.46655273 -54.05126953 110.46655273 -56.05126953 113.46655273 C-56.71126953 113.46655273 -57.37126953 113.46655273 -58.05126953 113.46655273 C-58.29748047 114.18456055 -58.54369141 114.90256836 -58.79736328 115.64233398 C-60.19243269 118.78449965 -61.9159876 121.01751216 -64.11376953 123.65405273 C-66.86047118 126.8793826 -66.86047118 126.8793826 -69.05126953 130.46655273 C-69.71126953 130.46655273 -70.37126953 130.46655273 -71.05126953 130.46655273 C-71.34001953 131.22967773 -71.62876953 131.99280273 -71.92626953 132.77905273 C-73.05126953 135.46655273 -73.05126953 135.46655273 -75.05126953 138.46655273 C-75.71126953 138.46655273 -76.37126953 138.46655273 -77.05126953 138.46655273 C-77.40705078 139.52036133 -77.40705078 139.52036133 -77.77001953 140.59545898 C-79.28375485 143.9875183 -81.23601881 146.49899922 -83.55126953 149.40405273 C-87.09861713 153.91494098 -90.54782501 158.47021349 -93.86376953 163.15405273 C-94.26789063 163.72438232 -94.67201172 164.29471191 -95.08837891 164.88232422 C-95.94538102 166.09182971 -96.80231233 167.30138537 -97.65917969 168.51098633 C-100.26932568 172.17764179 -102.91264122 175.82037128 -105.55126953 179.46655273 C-107.71866436 182.46602714 -109.88509997 185.46619338 -112.05126953 188.46655273 C-112.52129395 189.11720703 -112.99131836 189.76786133 -113.47558594 190.43823242 C-117.74946444 196.36116096 -121.97391705 202.3005017 -125.98876953 208.40405273 C-128.91849549 212.8483476 -131.99736165 217.13816345 -135.17626953 221.40405273 C-141.49902543 229.92276229 -147.32153635 238.75881031 -153.16259766 247.61157227 C-155.75278254 251.52698359 -158.36450825 255.42784696 -160.97485352 259.32983398 C-167.71907608 269.41550856 -174.39493733 279.54334285 -181.00415039 289.71801758 C-197.1509766 314.57286313 -197.1509766 314.57286313 -209.80273438 318.06079102 C-214.95129003 318.98987891 -220.21208997 318.79319097 -225.42626953 318.77905273 C-226.60705078 318.79516602 -227.78783203 318.8112793 -229.00439453 318.82788086 C-237.07050157 318.83237201 -243.71110081 317.98990664 -250.73876953 313.90405273 C-269.28442602 294.35592832 -275.90468049 258.60292287 -283.05126953 233.46655273 C-283.25228271 232.7756958 -283.4532959 232.08483887 -283.66040039 231.37304688 C-285.93047096 223.07938233 -287.20334494 212.64260548 -283.83642578 204.54467773 C-282.08764576 202.15810735 -280.32196246 200.36084251 -278.05126953 198.46655273 C-277.32552734 197.8594043 -276.59978516 197.25225586 -275.85205078 196.62670898 C-264.56039352 188.09730837 -251.65854157 181.59710421 -237.23876953 182.77905273 C-226.04926421 188.70290849 -222.97509363 200.2921336 -219.05126953 211.46655273 C-218.2515357 213.67878494 -217.44301302 215.88736349 -216.62597656 218.09326172 C-215.90956334 220.0302393 -215.20840223 221.97283864 -214.50830078 223.91577148 C-213.41552889 226.57885366 -212.31835733 228.84094989 -210.87548828 231.29858398 C-209.05126953 234.46655273 -209.05126953 234.46655273 -209.05126953 236.46655273 C-205.4313538 235.44308363 -205.4313538 235.44308363 -203.09033203 232.72436523 C-202.74744141 231.97928711 -202.40455078 231.23420898 -202.05126953 230.46655273 C-192.62431172 214.50154353 -182.4442242 198.92795673 -172.11010742 183.54003906 C-169.4307926 179.54851789 -166.79975621 175.53567602 -164.23876953 171.46655273 C-161.61394678 167.30217048 -158.84042102 163.27269722 -155.99658203 159.25561523 C-153.65493847 155.89831905 -151.38074484 152.49953362 -149.11376953 149.09155273 C-148.6905542 148.45693115 -148.26733887 147.82230957 -147.83129883 147.16845703 C-145.76887434 144.0706773 -143.72173218 140.9644903 -141.70361328 137.83764648 C-140.63820313 136.19989258 -140.63820313 136.19989258 -139.55126953 134.52905273 C-138.92220703 133.5506543 -138.29314453 132.57225586 -137.64501953 131.56420898 C-136.85611328 130.52586914 -136.85611328 130.52586914 -136.05126953 129.46655273 C-135.39126953 129.46655273 -134.73126953 129.46655273 -134.05126953 129.46655273 C-133.83599609 128.8078418 -133.62072266 128.14913086 -133.39892578 127.47045898 C-131.57701995 123.40945729 -129.08474136 120.00546133 -126.48876953 116.40405273 C-125.95155273 115.6510791 -125.41433594 114.89810547 -124.86083984 114.12231445 C-121.02227268 108.76179309 -117.10139118 103.46913276 -113.12158203 98.21264648 C-111.11123534 95.54609229 -109.13711534 92.85716203 -107.17626953 90.15405273 C-106.53689453 89.27491211 -105.89751953 88.39577148 -105.23876953 87.48999023 C-103.5432211 85.14650008 -101.85781608 82.79661838 -100.17626953 80.44311523 C-99.17642465 79.05498266 -98.1764256 77.66696111 -97.17626953 76.27905273 C-96.69947754 75.60640381 -96.22268555 74.93375488 -95.73144531 74.24072266 C-94.55367076 72.61277179 -93.30803085 71.03433075 -92.05126953 69.46655273 C-91.39126953 69.46655273 -90.73126953 69.46655273 -90.05126953 69.46655273 C-89.84501953 68.80655273 -89.63876953 68.14655273 -89.42626953 67.46655273 C-87.56002701 63.39475087 -85.07565426 59.77858275 -82.05126953 56.46655273 C-81.39126953 56.46655273 -80.73126953 56.46655273 -80.05126953 56.46655273 C-79.68001953 55.66217773 -79.68001953 55.66217773 -79.30126953 54.84155273 C-77.74474417 51.88415454 -76.0169128 49.16931223 -74.05126953 46.46655273 C-73.39126953 46.46655273 -72.73126953 46.46655273 -72.05126953 46.46655273 C-71.71095703 45.69311523 -71.71095703 45.69311523 -71.36376953 44.90405273 C-69.56909335 41.57108269 -67.55161938 38.31951602 -65.05126953 35.46655273 C-64.39126953 35.46655273 -63.73126953 35.46655273 -63.05126953 35.46655273 C-62.78314453 34.89420898 -62.51501953 34.32186523 -62.23876953 33.73217773 C-61.00994317 31.38770639 -59.62604777 29.34250336 -58.05126953 27.21655273 C-57.53564453 26.51014648 -57.02001953 25.80374023 -56.48876953 25.07592773 C-56.01439453 24.54483398 -55.54001953 24.01374023 -55.05126953 23.46655273 C-54.39126953 23.46655273 -53.73126953 23.46655273 -53.05126953 23.46655273 C-52.77798828 22.87358398 -52.50470703 22.28061523 -52.22314453 21.66967773 C-46.87314476 11.61167817 -34.5931426 5.93879668 -24.31689453 2.25561523 C-16.25347392 -0.1207829 -8.33527181 -0.10305253 0 0 Z " fill="#FDFDFD" transform="translate(446.05126953125,26.533447265625)"/>
</svg>
