<?xml version="1.0" encoding="UTF-8"?>
<svg version="1.1" xmlns="http://www.w3.org/2000/svg" width="500" height="499">
<path d="M0 0 C5.05660672 3.10291776 8.68742074 8.17856671 10.6171875 13.796875 C11.77286055 20.44789131 12.65134785 29.3064213 9.0625 35.3125 C8.08507454 36.57645841 7.06073185 37.80509443 6 39 C5.44957031 39.6703125 4.89914062 40.340625 4.33203125 41.03125 C-3.83701196 50.55364768 -13.0993279 59.17252244 -22 68 C-24.91846777 70.90530175 -27.81551045 73.8298251 -30.69921875 76.76953125 C-32.02855569 78.11727642 -33.35798452 79.46493096 -34.6875 80.8125 C-35.36361328 81.50537109 -36.03972656 82.19824219 -36.73632812 82.91210938 C-37.38408203 83.56630859 -38.03183594 84.22050781 -38.69921875 84.89453125 C-39.28533936 85.49112549 -39.87145996 86.08771973 -40.4753418 86.70239258 C-42 88 -42 88 -44 88 C-44.20625 88.53625 -44.4125 89.0725 -44.625 89.625 C-46.53250426 92.91978009 -49.04819384 95.59363628 -52 98 C-52.66 98 -53.32 98 -54 98 C-54.4021875 98.8971875 -54.4021875 98.8971875 -54.8125 99.8125 C-55.99917406 101.99847854 -57.09599113 103.41332594 -59 105 C-59.66 105 -60.32 105 -61 105 C-61.3403125 105.8353125 -61.3403125 105.8353125 -61.6875 106.6875 C-63.37550036 109.66159588 -65.46676517 111.72008865 -68 114 C-68.66 114 -69.32 114 -70 114 C-70 114.66 -70 115.32 -70 116 C-70.66 116 -71.32 116 -72 116 C-72 116.66 -72 117.32 -72 118 C-72.66 118 -73.32 118 -74 118 C-74 118.66 -74 119.32 -74 120 C-74.66 120 -75.32 120 -76 120 C-76.35578125 120.84304687 -76.35578125 120.84304687 -76.71875 121.703125 C-78.28947697 124.51894042 -80.21471464 126.47955416 -82.5 128.75 C-83.69109375 129.94882812 -83.69109375 129.94882812 -84.90625 131.171875 C-87 133 -87 133 -89 133 C-89 133.66 -89 134.32 -89 135 C-89.66 135 -90.32 135 -91 135 C-91 135.66 -91 136.32 -91 137 C-91.66 137 -92.32 137 -93 137 C-93 137.66 -93 138.32 -93 139 C-94.57421875 140.55078125 -94.57421875 140.55078125 -96.6875 142.3125 C-99.02484459 144.27129161 -101.23294984 146.23562742 -103.37890625 148.40625 C-106.69724783 151.68997401 -110.26359288 154.58182091 -113.890625 157.51367188 C-116.88158901 159.88589224 -116.88158901 159.88589224 -119 163 C-118.09231369 162.9845388 -118.09231369 162.9845388 -117.16629028 162.96876526 C-102.17823699 162.71374912 -87.19011302 162.46338468 -72.2019043 162.21769714 C-64.95259917 162.09876309 -57.7033228 161.97844176 -50.45410156 161.85449219 C-4.54082862 161.07071493 41.35256318 160.63425261 87.26997375 161.40345383 C89.377439 161.43858245 91.48491986 161.47260429 93.59240723 161.50637817 C103.06184137 161.6586851 112.53094875 161.82539315 122 162 C123.07626648 162.01933594 124.15253296 162.03867188 125.26141357 162.05859375 C130.53152889 162.15392461 135.8012104 162.25810328 141.07064819 162.38577271 C142.49687292 162.4196244 143.92316641 162.45071929 145.34951782 162.47872925 C157.62715643 162.72778644 164.93910888 164.16644307 174 173 C178.00008664 179.00012996 177.87092213 186.01603396 177 193 C174.92077443 199.74593185 171.15268345 205.38937589 165 209 C158.36592555 212.01464698 152.79499563 212.43211075 145.55993652 212.39872742 C144.42604067 212.40537424 143.29214482 212.41202107 142.12388849 212.41886932 C138.33445352 212.43748248 134.54533477 212.43489506 130.75585938 212.43237305 C128.03548899 212.43973524 125.31514247 212.45158779 122.5947876 212.46325684 C116.74321402 212.48601317 110.89169986 212.49792281 105.04008484 212.50238609 C96.57973383 212.50885497 88.11949008 212.53180531 79.65918237 212.55872939 C65.93165752 212.60197047 52.20413719 212.63195251 38.4765625 212.65356445 C25.14450864 212.67458218 11.81249177 212.70186419 -1.51953125 212.73754883 C-2.75299474 212.74084707 -2.75299474 212.74084707 -4.01137668 212.74421193 C-8.13681555 212.75528178 -12.26225408 212.76647456 -16.38769245 212.77772844 C-50.59176374 212.87087561 -84.79585064 212.94249115 -119 213 C-119 213.66 -119 214.32 -119 215 C-118.44731445 215.22816406 -117.89462891 215.45632813 -117.32519531 215.69140625 C-114.32753597 217.37845518 -112.2323494 219.50812518 -109.796875 221.9375 C-109.3142218 222.41823975 -108.8315686 222.89897949 -108.33428955 223.39428711 C-107.32000936 224.40721093 -106.30823196 225.42264638 -105.29882812 226.44042969 C-103.74828028 228.00173165 -102.18729497 229.55202497 -100.625 231.1015625 C-99.63998266 232.08790061 -98.65558547 233.0748585 -97.671875 234.0625 C-96.7756543 234.96097656 -95.87943359 235.85945312 -94.95605469 236.78515625 C-93 239 -93 239 -93 241 C-92.40237854 241.27295898 -91.80475708 241.54591797 -91.18902588 241.82714844 C-89.0615941 242.96699868 -87.67459528 244.07214943 -85.97558594 245.765625 C-85.41530701 246.31959961 -84.85502808 246.87357422 -84.277771 247.44433594 C-83.68595032 248.04020508 -83.09412964 248.63607422 -82.484375 249.25 C-81.86854553 249.86391602 -81.25271606 250.47783203 -80.6182251 251.11035156 C-79.32147354 252.40574483 -78.02723343 253.70365644 -76.73535156 255.00390625 C-74.75024798 256.99975068 -72.75466409 258.98466726 -70.7578125 260.96875 C-69.49935789 262.22852555 -68.24152346 263.48892101 -66.984375 264.75 C-66.3844574 265.34586914 -65.78453979 265.94173828 -65.16644287 266.55566406 C-61 270.77006753 -61 270.77006753 -61 273 C-60.401875 273.268125 -59.80375 273.53625 -59.1875 273.8125 C-57.00152146 274.99917406 -55.58667406 276.09599113 -54 278 C-54 278.66 -54 279.32 -54 280 C-53.34 280 -52.68 280 -52 280 C-52 280.66 -52 281.32 -52 282 C-51.34 282 -50.68 282 -50 282 C-50 282.66 -50 283.32 -50 284 C-49.34 284 -48.68 284 -48 284 C-48 284.66 -48 285.32 -48 286 C-47.34 286 -46.68 286 -46 286 C-43.375 288.375 -43.375 288.375 -41 291 C-41 291.66 -41 292.32 -41 293 C-40.34 293 -39.68 293 -39 293 C-39 293.66 -39 294.32 -39 295 C-38.34 295 -37.68 295 -37 295 C-37 295.66 -37 296.32 -37 297 C-36.34 297 -35.68 297 -35 297 C-35 297.66 -35 298.32 -35 299 C-34.34 299 -33.68 299 -33 299 C-33 299.66 -33 300.32 -33 301 C-32.34 301 -31.68 301 -31 301 C-28.375 303.375 -28.375 303.375 -26 306 C-26 306.66 -26 307.32 -26 308 C-25.34 308 -24.68 308 -24 308 C-24 308.66 -24 309.32 -24 310 C-23.34 310 -22.68 310 -22 310 C-22 310.66 -22 311.32 -22 312 C-21.34 312 -20.68 312 -20 312 C-20 312.66 -20 313.32 -20 314 C-19.34 314 -18.68 314 -18 314 C-18 314.66 -18 315.32 -18 316 C-17.01 316.33 -16.02 316.66 -15 317 C-15 317.66 -15 318.32 -15 319 C-14.34 319 -13.68 319 -13 319 C-13 319.66 -13 320.32 -13 321 C-12.4225 321.2475 -11.845 321.495 -11.25 321.75 C-8.67060021 323.18299988 -6.93878408 324.78424676 -5 327 C-5 327.66 -5 328.32 -5 329 C-4.01 329.33 -3.02 329.66 -2 330 C-2 330.66 -2 331.32 -2 332 C-1.34 332 -0.68 332 0 332 C0 332.66 0 333.32 0 334 C0.66 334 1.32 334 2 334 C3.4375 335.57421875 3.4375 335.57421875 5 337.6875 C5.515625 338.37199219 6.03125 339.05648438 6.5625 339.76171875 C10.87627364 346.47854564 10.68783423 353.22218212 10 361 C8.30858834 367.70141584 3.56025852 372.1646392 -2 376 C-7.87986426 379.21341419 -13.88447095 380.0456393 -20.3984375 378.390625 C-24.00685341 377.2462083 -26.82780551 376.11479633 -30 374 C-30 373.34 -30 372.68 -30 372 C-30.53514221 371.78952026 -31.07028442 371.57904053 -31.62164307 371.36218262 C-34.91871907 369.47381188 -37.3975174 366.880612 -40.05371094 364.20507812 C-40.9470388 363.31700722 -40.9470388 363.31700722 -41.8584137 362.41099548 C-43.82212334 360.45607647 -45.77844134 358.49394678 -47.734375 356.53125 C-49.09600044 355.17097161 -50.45792268 353.81099024 -51.82012939 352.45129395 C-54.67127498 349.60309571 -57.51877419 346.75131384 -60.36376953 343.89697266 C-64.01797671 340.23134958 -67.68111714 336.57480606 -71.34701157 332.92087555 C-74.15921181 330.11588588 -76.96665136 327.30617049 -79.77265167 324.49497986 C-81.12204247 323.14425146 -82.47292995 321.79501662 -83.82530975 320.44728088 C-85.70969948 318.56794552 -87.58760003 316.68236178 -89.46386719 314.79492188 C-90.02797806 314.23485947 -90.59208893 313.67479706 -91.17329407 313.09776306 C-95 309.228531 -95 309.228531 -95 307 C-95.59867826 306.72650002 -96.19735653 306.45300005 -96.81417656 306.1712122 C-98.9313745 305.03677105 -100.29149366 303.95328601 -101.97317505 302.26060486 C-102.53111755 301.70396652 -103.08906006 301.14732819 -103.66390991 300.57382202 C-104.26353546 299.96543488 -104.86316101 299.35704773 -105.48095703 298.73022461 C-106.12206421 298.08780319 -106.76317139 297.44538177 -107.42370605 296.78349304 C-109.53970984 294.66100301 -111.64865221 292.53163251 -113.7578125 290.40234375 C-115.22653154 288.92735446 -116.69576682 287.45287904 -118.16549683 285.97889709 C-122.03231652 282.09877497 -125.89352976 278.21312523 -129.75317383 274.3258667 C-135.93720986 268.09870473 -142.12798693 261.87826195 -148.32198715 255.66101265 C-150.48813458 253.48461479 -152.65085265 251.30485082 -154.81326294 249.1247406 C-156.13467142 247.79650672 -157.4561885 246.46838086 -158.77783203 245.14038086 C-159.38150604 244.52996948 -159.98518005 243.91955811 -160.60714722 243.29064941 C-163.52074694 240.2742696 -163.52074694 240.2742696 -167 238 C-167 237.34 -167 236.68 -167 236 C-167.66 236 -168.32 236 -169 236 C-169 235.34 -169 234.68 -169 234 C-169.66 234 -170.32 234 -171 234 C-171 233.34 -171 232.68 -171 232 C-171.66 232 -172.32 232 -173 232 C-173 231.34 -173 230.68 -173 230 C-173.66 230 -174.32 230 -175 230 C-176.71108689 228.37897032 -178.37253306 226.70496537 -180 225 C-180.763125 224.278125 -181.52625 223.55625 -182.3125 222.8125 C-184 221 -184 221 -184 219 C-184.66 219 -185.32 219 -186 219 C-186 218.34 -186 217.68 -186 217 C-186.66 217 -187.32 217 -188 217 C-188 216.34 -188 215.68 -188 215 C-188.66 215 -189.32 215 -190 215 C-190 214.34 -190 213.68 -190 213 C-190.66 213 -191.32 213 -192 213 C-193.625 211.625 -193.625 211.625 -195 210 C-195 209.34 -195 208.68 -195 208 C-195.66 208 -196.32 208 -197 208 C-197 207.34 -197 206.68 -197 206 C-197.66 206 -198.32 206 -199 206 C-199 205.34 -199 204.68 -199 204 C-199.66 204 -200.32 204 -201 204 C-205.83169477 195.89522167 -207.33087071 189.50093227 -205.0625 180.125 C-200.90377525 170.29169851 -191.57321763 162.28795711 -184.109375 154.9140625 C-183.20173401 154.0092514 -182.29409302 153.10444031 -181.35894775 152.17221069 C-178.97836015 149.79914809 -176.59183433 147.43215193 -174.20385742 145.06652832 C-171.77545819 142.65872257 -169.35281654 140.24513863 -166.9296875 137.83203125 C-163.38272892 134.30131998 -159.833222 130.77321852 -156.28027344 127.24853516 C-155.53072388 126.5041217 -154.78117432 125.75970825 -154.00891113 124.99273682 C-152.79782759 123.79140406 -151.58504852 122.59177234 -150.36901855 121.39544678 C-148.51150028 119.56138499 -146.85556358 117.8020686 -145.3125 115.6875 C-144.879375 115.130625 -144.44625 114.57375 -144 114 C-143.34 114 -142.68 114 -142 114 C-142 113.34 -142 112.68 -142 112 C-141.34 112 -140.68 112 -140 112 C-140 111.34 -140 110.68 -140 110 C-139.34 110 -138.68 110 -138 110 C-138 109.34 -138 108.68 -138 108 C-137.34 108 -136.68 108 -136 108 C-136 107.34 -136 106.68 -136 106 C-135.34 106 -134.68 106 -134 106 C-134 105.34 -134 104.68 -134 104 C-131.625 101.375 -131.625 101.375 -129 99 C-128.34 99 -127.68 99 -127 99 C-126.01 97.02 -126.01 97.02 -125 95 C-124.34 95 -123.68 95 -123 95 C-123 94.34 -123 93.68 -123 93 C-122.34 93 -121.68 93 -121 93 C-121 92.34 -121 91.68 -121 91 C-120.34 91 -119.68 91 -119 91 C-119 90.34 -119 89.68 -119 89 C-117.625 87.375 -117.625 87.375 -116 86 C-115.34 86 -114.68 86 -114 86 C-114 85.34 -114 84.68 -114 84 C-113.34 84 -112.68 84 -112 84 C-112 83.34 -112 82.68 -112 82 C-111.34 82 -110.68 82 -110 82 C-110 81.34 -110 80.68 -110 80 C-109.34 80 -108.68 80 -108 80 C-108 79.34 -108 78.68 -108 78 C-107.34 78 -106.68 78 -106 78 C-106 77.34 -106 76.68 -106 76 C-105.34 76 -104.68 76 -104 76 C-103.505 74.515 -103.505 74.515 -103 73 C-102.34 73 -101.68 73 -101 73 C-101 72.34 -101 71.68 -101 71 C-100.34 71 -99.68 71 -99 71 C-99 70.34 -99 69.68 -99 69 C-98.34 69 -97.68 69 -97 69 C-97 68.34 -97 67.68 -97 67 C-96.34 67 -95.68 67 -95 67 C-95 66.34 -95 65.68 -95 65 C-94.34 65 -93.68 65 -93 65 C-93 64.34 -93 63.68 -93 63 C-92.34 63 -91.68 63 -91 63 C-90.505 61.515 -90.505 61.515 -90 60 C-89.34 60 -88.68 60 -88 60 C-88 59.34 -88 58.68 -88 58 C-87.34 58 -86.68 58 -86 58 C-86 57.34 -86 56.68 -86 56 C-85.34 56 -84.68 56 -84 56 C-84 55.34 -84 54.68 -84 54 C-83.34 54 -82.68 54 -82 54 C-82 53.34 -82 52.68 -82 52 C-81.34 52 -80.68 52 -80 52 C-79.731875 51.401875 -79.46375 50.80375 -79.1875 50.1875 C-78.00082594 48.00152146 -76.90400887 46.58667406 -75 45 C-74.34 45 -73.68 45 -73 45 C-73 44.34 -73 43.68 -73 43 C-72.34 43 -71.68 43 -71 43 C-71 42.34 -71 41.68 -71 41 C-70.34 41 -69.68 41 -69 41 C-68.78085938 40.45633789 -68.56171875 39.91267578 -68.3359375 39.35253906 C-66.55895085 36.22332793 -64.15895025 33.87314601 -61.625 31.359375 C-61.09986816 30.83232971 -60.57473633 30.30528442 -60.03369141 29.76226807 C-58.92661117 28.65383072 -57.8170167 27.54789954 -56.70507812 26.44433594 C-54.99893025 24.74893699 -53.30375953 23.0430839 -51.609375 21.3359375 C-50.53189108 20.25977442 -49.45378733 19.18423149 -48.375 18.109375 C-47.86662598 17.59695251 -47.35825195 17.08453003 -46.83447266 16.55657959 C-43.22994091 13 -43.22994091 13 -41 13 C-41 12.34 -41 11.68 -41 11 C-40.34 11 -39.68 11 -39 11 C-38.76796875 10.42507812 -38.5359375 9.85015625 -38.296875 9.2578125 C-36.67918832 6.44147846 -34.7862279 4.89629678 -32.25 2.875 C-31.40953125 2.19179688 -30.5690625 1.50859375 -29.703125 0.8046875 C-20.90401681 -5.06986161 -9.32604996 -4.44189184 0 0 Z " fill="#F8F9FA" transform="translate(264,56)"/>
<path d="M0 0 C0.33 0 0.66 0 1 0 C1.61726515 8.23020204 1.37626655 13.59723864 -4 20 C-4.55042969 20.67417969 -5.10085938 21.34835938 -5.66796875 22.04296875 C-13.86108059 31.54436192 -23.09903455 40.17223151 -32 49 C-34.91846777 51.90530175 -37.81551045 54.8298251 -40.69921875 57.76953125 C-42.02855569 59.11727642 -43.35798452 60.46493096 -44.6875 61.8125 C-45.36361328 62.50537109 -46.03972656 63.19824219 -46.73632812 63.91210938 C-47.38408203 64.56630859 -48.03183594 65.22050781 -48.69921875 65.89453125 C-49.28533936 66.49112549 -49.87145996 67.08771973 -50.4753418 67.70239258 C-52 69 -52 69 -54 69 C-54.309375 69.804375 -54.309375 69.804375 -54.625 70.625 C-56.53250426 73.91978009 -59.04819384 76.59363628 -62 79 C-62.66 79 -63.32 79 -64 79 C-64.4021875 79.8971875 -64.4021875 79.8971875 -64.8125 80.8125 C-65.99917406 82.99847854 -67.09599113 84.41332594 -69 86 C-69.66 86 -70.32 86 -71 86 C-71.226875 86.556875 -71.45375 87.11375 -71.6875 87.6875 C-73.37550036 90.66159588 -75.46676517 92.72008865 -78 95 C-78.66 95 -79.32 95 -80 95 C-80 95.66 -80 96.32 -80 97 C-80.66 97 -81.32 97 -82 97 C-82 97.66 -82 98.32 -82 99 C-82.66 99 -83.32 99 -84 99 C-84 99.66 -84 100.32 -84 101 C-84.66 101 -85.32 101 -86 101 C-86.2371875 101.56203125 -86.474375 102.1240625 -86.71875 102.703125 C-88.28947697 105.51894042 -90.21471464 107.47955416 -92.5 109.75 C-93.2940625 110.54921875 -94.088125 111.3484375 -94.90625 112.171875 C-97 114 -97 114 -99 114 C-99 114.66 -99 115.32 -99 116 C-99.66 116 -100.32 116 -101 116 C-101 116.66 -101 117.32 -101 118 C-101.66 118 -102.32 118 -103 118 C-103 118.66 -103 119.32 -103 120 C-104.57421875 121.55078125 -104.57421875 121.55078125 -106.6875 123.3125 C-109.01307373 125.26142714 -111.21277994 127.21525824 -113.34765625 129.375 C-116.8859124 132.87677928 -120.69576309 135.99511445 -124.53515625 139.15820312 C-127.71808169 141.69798928 -127.71808169 141.69798928 -130 145 C-130.99 144.67 -131.98 144.34 -133 144 C-132.34 143.01 -131.68 142.02 -131 141 C-130.34 141 -129.68 141 -129 141 C-128.773125 140.443125 -128.54625 139.88625 -128.3125 139.3125 C-126.62449964 136.33840412 -124.53323483 134.27991135 -122 132 C-121.34 132 -120.68 132 -120 132 C-119.01 130.02 -119.01 130.02 -118 128 C-117.34 128 -116.68 128 -116 128 C-115.773125 127.443125 -115.54625 126.88625 -115.3125 126.3125 C-113.62594519 123.34095104 -111.44443894 121.397301 -109 119 C-107.91069854 117.89134504 -106.82355391 116.78056785 -105.73828125 115.66796875 C-104.59641694 114.50775071 -103.45448901 113.34759529 -102.3125 112.1875 C-101.73177734 111.59001953 -101.15105469 110.99253906 -100.55273438 110.37695312 C-99.07274424 108.87985327 -97.54017218 107.43511269 -96 106 C-95.34 106 -94.68 106 -94 106 C-93.731875 105.401875 -93.46375 104.80375 -93.1875 104.1875 C-92.00082594 102.00152146 -90.90400887 100.58667406 -89 99 C-88.34 99 -87.68 99 -87 99 C-87 98.34 -87 97.68 -87 97 C-84.3448818 94.10350742 -81.51524651 91.57630508 -78.5 89.0625 C-76.12423992 87.06976007 -74.12089423 85.04887183 -72.1875 82.625 C-71.465625 81.75875 -70.74375 80.8925 -70 80 C-69.34 80 -68.68 80 -68 80 C-68 79.34 -68 78.68 -68 78 C-67.34 78 -66.68 78 -66 78 C-65.505 76.515 -65.505 76.515 -65 75 C-64.34 75 -63.68 75 -63 75 C-63 74.01 -63 73.02 -63 72 C-61.70703125 70.6328125 -61.70703125 70.6328125 -59.8125 69.125 C-55.76002003 65.73828459 -52.02777815 62.12140145 -48.3125 58.375 C-47.4932605 57.54959717 -47.4932605 57.54959717 -46.6574707 56.70751953 C-45.60144759 55.64170802 -44.54624652 54.57508127 -43.49194336 53.50756836 C-42.09117443 52.0921293 -40.68256964 50.68445708 -39.2734375 49.27734375 C-37.59960814 47.60063839 -35.94927104 45.90039992 -34.3125 44.1875 C-32 42 -32 42 -30 42 C-29.34 40.68 -28.68 39.36 -28 38 C-27.34 38 -26.68 38 -26 38 C-26 37.01 -26 36.02 -26 35 C-24.64453125 33.5703125 -24.64453125 33.5703125 -22.8125 32.125 C-19.68105516 29.57321899 -16.82251008 26.89678666 -14 24 C-12.7625 22.7934375 -12.7625 22.7934375 -11.5 21.5625 C-5.1312687 15.03455041 -1.12431324 9.2193686 0 0 Z " fill="#CDCED2" transform="translate(274,75)"/>
<path d="M0 0 C0.87011719 -0.00136459 1.74023438 -0.00272919 2.63671875 -0.00413513 C5.54170366 -0.00618139 8.44658759 0.00024823 11.3515625 0.0078125 C12.36889465 0.00903107 13.38622681 0.01024963 14.43438721 0.01150513 C56.27372163 0.06896901 98.16477657 0.59010691 139.9765625 2.1328125 C139.9765625 2.4628125 139.9765625 2.7928125 139.9765625 3.1328125 C87.8365625 3.1328125 35.6965625 3.1328125 -18.0234375 3.1328125 C-18.0234375 2.4728125 -18.0234375 1.8128125 -18.0234375 1.1328125 C-11.97469662 0.37718887 -6.09178981 -0.01524654 0 0 Z " fill="#EBECED" transform="translate(280.0234375,216.8671875)"/>
<path d="M0 0 C0.495 0.99 0.495 0.99 1 2 C0.34 2 -0.32 2 -1 2 C-1 2.66 -1 3.32 -1 4 C-1.66 4 -2.32 4 -3 4 C-3.66 5.32 -4.32 6.64 -5 8 C-5.66 8 -6.32 8 -7 8 C-7 8.66 -7 9.32 -7 10 C-7.66 10 -8.32 10 -9 10 C-9 10.66 -9 11.32 -9 12 C-9.66 12 -10.32 12 -11 12 C-11 12.66 -11 13.32 -11 14 C-12.35546875 15.33203125 -12.35546875 15.33203125 -14.1875 16.8125 C-18.08444273 20.04947663 -21.72712311 23.33209234 -24.8125 27.375 C-27.27251736 30.32702084 -29.98980857 32.67071463 -32.90234375 35.1640625 C-37.0300958 38.77680638 -40.95131657 42.42697486 -44 47 C-44.66 47 -45.32 47 -46 47 C-46 47.66 -46 48.32 -46 49 C-47.62626404 50.38232443 -49.2925002 51.71937515 -51 53 C-51.66 52.67 -52.32 52.34 -53 52 C-52.34 51.01 -51.68 50.02 -51 49 C-50.34 49 -49.68 49 -49 49 C-49 48.34 -49 47.68 -49 47 C-48.34 47 -47.68 47 -47 47 C-47 46.34 -47 45.68 -47 45 C-46.34 45 -45.68 45 -45 45 C-45 44.34 -45 43.68 -45 43 C-44.34 43 -43.68 43 -43 43 C-43 42.34 -43 41.68 -43 41 C-42.34 41 -41.68 41 -41 41 C-41 40.34 -41 39.68 -41 39 C-38.625 36.375 -38.625 36.375 -36 34 C-35.34 34 -34.68 34 -34 34 C-33.34 32.68 -32.68 31.36 -32 30 C-31.34 30 -30.68 30 -30 30 C-30 29.34 -30 28.68 -30 28 C-29.34 28 -28.68 28 -28 28 C-28 27.34 -28 26.68 -28 26 C-27.34 26 -26.68 26 -26 26 C-26 25.34 -26 24.68 -26 24 C-24.625 22.375 -24.625 22.375 -23 21 C-22.34 21 -21.68 21 -21 21 C-21 20.34 -21 19.68 -21 19 C-20.34 19 -19.68 19 -19 19 C-19 18.34 -19 17.68 -19 17 C-18.34 17 -17.68 17 -17 17 C-17 16.34 -17 15.68 -17 15 C-16.34 15 -15.68 15 -15 15 C-15 14.34 -15 13.68 -15 13 C-14.34 13 -13.68 13 -13 13 C-13 12.34 -13 11.68 -13 11 C-12.34 11 -11.68 11 -11 11 C-10.67 10.01 -10.34 9.02 -10 8 C-9.34 8 -8.68 8 -8 8 C-8 7.34 -8 6.68 -8 6 C-7.34 6 -6.68 6 -6 6 C-6 5.34 -6 4.68 -6 4 C-5.34 4 -4.68 4 -4 4 C-4 3.34 -4 2.68 -4 2 C-2.68 1.34 -1.36 0.68 0 0 Z M-54 53 C-54 57.19902873 -56.20971967 59.12355899 -59 62 C-61.61000857 64.40255872 -64.2821458 66.72050938 -67 69 C-67 66 -67 66 -65.42578125 64.1328125 C-64.72839844 63.47023437 -64.03101562 62.80765625 -63.3125 62.125 C-62.58675781 61.42632812 -61.86101562 60.72765625 -61.11328125 60.0078125 C-60.41589844 59.34523437 -59.71851562 58.68265625 -59 58 C-57.99643073 57.00358206 -56.99568662 56.00429486 -56 55 C-55.34 54.34 -54.68 53.68 -54 53 Z " fill="#EFF0F0" transform="translate(171,121)"/>
<path d="M0 0 C2 1 2 1 3.34863281 4.26171875 C6.74215049 11.26713918 12.93839097 16.42668441 18.421875 21.8125 C19.65014608 23.03330054 20.87752944 24.25499481 22.10406494 25.47753906 C25.31744522 28.67572721 28.54265824 31.86171383 31.77056885 35.04522705 C35.06918579 38.30275241 38.3563536 41.57178713 41.64453125 44.83984375 C48.08526133 51.23781639 54.53856306 57.622945 61 64 C58 64 58 64 56.03881836 62.36352539 C55.31315674 61.61578857 54.58749512 60.86805176 53.83984375 60.09765625 C53.04642578 59.29005859 52.25300781 58.48246094 51.43554688 57.65039062 C50.19901367 56.36938477 50.19901367 56.36938477 48.9375 55.0625 C47.30290106 53.38465097 45.66628197 51.70876689 44.02734375 50.03515625 C42.94054321 48.91185913 42.94054321 48.91185913 41.83178711 47.76586914 C40.11098342 45.93099363 40.11098342 45.93099363 38 45 C38 44.34 38 43.68 38 43 C37.34 43 36.68 43 36 43 C36 42.34 36 41.68 36 41 C35.34 41 34.68 41 34 41 C34 40.34 34 39.68 34 39 C33.34 39 32.68 39 32 39 C32 38.34 32 37.68 32 37 C31.34 37 30.68 37 30 37 C28.28891311 35.37897032 26.62746694 33.70496537 25 32 C24.236875 31.278125 23.47375 30.55625 22.6875 29.8125 C21 28 21 28 21 26 C20.34 26 19.68 26 19 26 C19 25.34 19 24.68 19 24 C18.34 24 17.68 24 17 24 C17 23.34 17 22.68 17 22 C16.34 22 15.68 22 15 22 C15 21.34 15 20.68 15 20 C14.34 20 13.68 20 13 20 C11.375 18.625 11.375 18.625 10 17 C10 16.34 10 15.68 10 15 C9.34 15 8.68 15 8 15 C8 14.34 8 13.68 8 13 C7.34 13 6.68 13 6 13 C6 12.34 6 11.68 6 11 C5.34 11 4.68 11 4 11 C0 4.5 0 4.5 0 0 Z " fill="#E8E8E9" transform="translate(59,249)"/>
<path d="M0 0 C0.99 0.33 1.98 0.66 3 1 C0.36232242 3.64252625 -2.28036172 6.2793837 -4.9375 8.90234375 C-5.9583567 9.91403892 -6.9791898 10.92575791 -8 11.9375 C-8.50789063 12.43701172 -9.01578125 12.93652344 -9.5390625 13.45117188 C-12.02940031 15.92554598 -14.39670825 18.42361436 -16.6171875 21.14453125 C-18.6716029 23.60646184 -20.69568878 25.67317708 -23.125 27.75 C-23.78757813 28.32234375 -24.45015625 28.8946875 -25.1328125 29.484375 C-27 31 -27 31 -30 33 C-29.67 31.68 -29.34 30.36 -29 29 C-28.34 29 -27.68 29 -27 29 C-27 28.34 -27 27.68 -27 27 C-26.34 27 -25.68 27 -25 27 C-25 26.34 -25 25.68 -25 25 C-24.34 25 -23.68 25 -23 25 C-23 24.34 -23 23.68 -23 23 C-22.34 23 -21.68 23 -21 23 C-21 22.34 -21 21.68 -21 21 C-20.34 21 -19.68 21 -19 21 C-18.731875 20.401875 -18.46375 19.80375 -18.1875 19.1875 C-17.00082594 17.00152146 -15.90400887 15.58667406 -14 14 C-13.34 14 -12.68 14 -12 14 C-12 13.34 -12 12.68 -12 12 C-11.34 12 -10.68 12 -10 12 C-10 11.34 -10 10.68 -10 10 C-9.34 10 -8.68 10 -8 10 C-7.690625 9.195625 -7.690625 9.195625 -7.375 8.375 C-5.42003056 4.9982346 -2.81776305 2.69525161 0 0 Z " fill="#F2F2F2" transform="translate(203,87)"/>
<path d="M0 0 C-1.12685023 3.38055068 -2.05384625 4.1079382 -4.75 6.3125 C-7.29166604 8.46210053 -9.35473559 10.42568271 -11.5 13 C-14.09221428 16.11065714 -16.86020307 18.57646018 -19.9375 21.1875 C-22.63070504 23.55425594 -25.09327495 26.11032582 -27.5546875 28.71484375 C-29 30 -29 30 -31 30 C-29.68692628 27.10147635 -28.27315362 25.01722783 -26.03125 22.765625 C-25.46019531 22.19199219 -24.88914063 21.61835937 -24.30078125 21.02734375 C-23.70652344 20.44082031 -23.11226562 19.85429688 -22.5 19.25 C-21.90574219 18.64800781 -21.31148437 18.04601562 -20.69921875 17.42578125 C-20.12816406 16.85730469 -19.55710938 16.28882812 -18.96875 15.703125 C-18.44732422 15.18395508 -17.92589844 14.66478516 -17.38867188 14.12988281 C-16 13 -16 13 -14 13 C-14 12.34 -14 11.68 -14 11 C-13.34 11 -12.68 11 -12 11 C-11.7525 10.41734375 -11.505 9.8346875 -11.25 9.234375 C-9.81474554 6.66885764 -8.22336987 5.16275202 -6 3.25 C-5.29875 2.63640625 -4.5975 2.0228125 -3.875 1.390625 C-2 0 -2 0 0 0 Z " fill="#F1F1F1" transform="translate(237,56)"/>
<path d="M0 0 C-1.54771799 4.05928432 -4.18900089 5.99481425 -7.5625 8.625 C-11.33561389 11.35008705 -11.33561389 11.35008705 -14 15 C-14.99 14.67 -15.98 14.34 -17 14 C-16.34 13.01 -15.68 12.02 -15 11 C-14.34 11 -13.68 11 -13 11 C-12.773125 10.443125 -12.54625 9.88625 -12.3125 9.3125 C-9.74076553 4.78134879 -5.56343698 0 0 0 Z " fill="#C4C4C7" transform="translate(158,205)"/>
<path d="M0 0 C0.33 0.66 0.66 1.32 1 2 C-0.0828125 3.051875 -0.0828125 3.051875 -1.1875 4.125 C-3.09156386 6.01836687 -4.73179136 7.90066629 -6.4375 10 C-9.06751232 13.07903881 -11.8625034 15.45078401 -15 18 C-15.886875 18.928125 -16.77375 19.85625 -17.6875 20.8125 C-20 23 -20 23 -23 23 C-15.41 15.41 -7.82 7.82 0 0 Z " fill="#EBEDED" transform="translate(96,195)"/>
<path d="M0 0 C0.33 0.99 0.66 1.98 1 3 C-0.375 4.5 -0.375 4.5 -2 6 C-2.66 6 -3.32 6 -4 6 C-4 6.66 -4 7.32 -4 8 C-4.66 8 -5.32 8 -6 8 C-6 8.66 -6 9.32 -6 10 C-7.0828125 10.12375 -7.0828125 10.12375 -8.1875 10.25 C-11.55313254 11.14750201 -13.41612816 12.7114278 -16 15 C-13.66892157 9.27826204 -9.23932293 5.9555155 -4 3 C-2.65368175 2.01755155 -1.31558703 1.02323436 0 0 Z " fill="#CECED2" transform="translate(179,183)"/>
<path d="M0 0 C6.03331362 4.98404168 11.5184171 10.41915303 17 16 C11.96512647 16 8.80401027 11.76661444 5.3125 8.4375 C0 2.83783784 0 2.83783784 0 0 Z " fill="#EAEAEB" transform="translate(146,271)"/>
<path d="M0 0 C0.33 0 0.66 0 1 0 C1.08133791 1.91595968 1.13934367 3.83291932 1.1875 5.75 C1.22230469 6.81734375 1.25710938 7.8846875 1.29296875 8.984375 C0.97082786 12.30027855 0.22851086 13.59016673 -2 16 C-2.66 15.67 -3.32 15.34 -4 15 C-3.79503906 14.41992188 -3.59007812 13.83984375 -3.37890625 13.2421875 C-1.85990187 8.8378016 -0.5952849 4.64322223 0 0 Z " fill="#D8D9DA" transform="translate(274,75)"/>
<path d="M0 0 C0.33 0.99 0.66 1.98 1 3 C0.67 3.66 0.34 4.32 0 5 C-0.66 5 -1.32 5 -2 5 C-2 5.66 -2 6.32 -2 7 C-2.66 7 -3.32 7 -4 7 C-4 7.66 -4 8.32 -4 9 C-4.99 9 -5.98 9 -7 9 C-6.07506212 5.21616321 -5.60628829 3.43306306 -2.375 1.125 C-1.199375 0.568125 -1.199375 0.568125 0 0 Z " fill="#C7C8CC" transform="translate(192,169)"/>
<path d="M0 0 C-0.15481795 2.70931419 -0.48172081 4.46584039 -2.40234375 6.4453125 C-3.89771708 7.67679642 -5.4462924 8.8429837 -7 10 C-7.33 9.01 -7.66 8.02 -8 7 C-6.85546875 5.17578125 -6.85546875 5.17578125 -5.1875 3.3125 C-4.37345703 2.37857422 -4.37345703 2.37857422 -3.54296875 1.42578125 C-2 0 -2 0 0 0 Z " fill="#C6C6CD" transform="translate(259,103)"/>
<path d="M0 0 C3.3 0 6.6 0 10 0 C10 0.99 10 1.98 10 3 C7.03 3 4.06 3 1 3 C0.67 2.01 0.34 1.02 0 0 Z " fill="#F1F2F3" transform="translate(290,217)"/>
<path d="M0 0 C0.33 1.32 0.66 2.64 1 4 C0.195625 4.61875 -0.60875 5.2375 -1.4375 5.875 C-4.03874519 7.74164041 -4.03874519 7.74164041 -5 10 C-5.99 9.67 -6.98 9.34 -8 9 C-7.34 8.01 -6.68 7.02 -6 6 C-5.34 6 -4.68 6 -4 6 C-3.71125 5.38125 -3.4225 4.7625 -3.125 4.125 C-2 2 -2 2 0 0 Z " fill="#D7D8DA" transform="translate(149,210)"/>
<path d="M0 0 C0.66 0.33 1.32 0.66 2 1 C1.01 2.485 1.01 2.485 0 4 C0.66 4.33 1.32 4.66 2 5 C1.01 5.33 0.02 5.66 -1 6 C-1.33 6.66 -1.66 7.32 -2 8 C-2 7.34 -2 6.68 -2 6 C-2.66 6 -3.32 6 -4 6 C-2.84826645 3.53199953 -1.95216435 1.95216435 0 0 Z " fill="#D3D3D7" transform="translate(204,155)"/>
</svg>
